<svg id="图层_1" data-name="图层 1" xmlns="http://www.w3.org/2000/svg" viewBox="0 0 1560.76 1226.89"><defs><style>.cls-1{fill:#0d4ea0;}</style></defs><title>云顶创联形象墙LOGO [已恢复]</title><path class="cls-1" d="M728.94,41.12C408.69,41.12,149.08,300.74,149.08,621A581.27,581.27,0,0,0,164,751.6L717.57,168.92l39.68,42.8L1056.1,529.25,886.83,515.73,722.71,344.23,315.63,764A1168.79,1168.79,0,0,1,493.22,677.3c305.7-118.68,617.56-96.55,808.2,36a583.64,583.64,0,0,0,7.39-92.29C1308.81,300.74,1049.2,41.12,728.94,41.12Z"/><path class="cls-1" d="M852.7,692.19v0l-.3,0c-48.19-6-101.67-4.7-160.45,3.17-132.71,16.2-254.57,62.28-342.75,104-48,21-95.63,46-140.64,77.6,94.54,191.89,292,324,520.38,324,155.74,0,297-61.51,401.19-161.41,7.75-83.41-10.13-161.65-57.25-224.59C1019,742.89,945.66,703.88,852.7,692.19Z"/></svg>