<svg viewBox="0 0 430 430" xmlns="http://www.w3.org/2000/svg">
	<path fill="currentColor"
		d="m214.18,1.71c-117.79,0 -213.28,95.49 -213.28,213.29a213.62,213.62 0 0 0 5.5,48l203.6,-214.29l14.6,15.75l109.91,116.79l-62.26,-5l-60.36,-63.08l-149.73,154.43a430.19,430.19 0 0 1 65.32,-31.9c112.44,-43.65 227.14,-35.51 297.26,13.24a214.63,214.63 0 0 0 2.72,-33.94c0,-117.8 -95.46,-213.29 -213.28,-213.29z" />
	<path fill="currentColor"
		d="m259.7,241.18l-0.11,0c-17.73,-2.22 -37.4,-1.73 -59,1.16c-48.81,6 -93.63,22.91 -126.07,38.25a295.46,295.46 0 0 0 -51.72,28.54a213.2,213.2 0 0 0 339,59.79c2.85,-30.67 -3.72,-59.45 -21.06,-82.6c-19.88,-26.49 -46.85,-40.84 -81.04,-45.14z" />
</svg>